<svg width="16" height="16" viewBox="0 0 16 16" fill="none" xmlns="http://www.w3.org/2000/svg">
<path d="M8.03337 0C10.1645 0.00105741 12.1648 0.826643 13.6688 2.32524C15.1729 3.82377 16.0008 5.81593 16 7.9341C15.9983 12.2619 12.4952 15.7911 8.165 15.8613L8.03356 15.8624H8.03025C6.71744 15.8619 5.42712 15.5393 4.27706 14.9265L4.22331 14.8976L0 16L1.13019 11.8914C0.433125 10.6893 0.0663125 9.32521 0.066875 7.92775C0.068625 3.5565 3.64244 0 8.03337 0ZM8.03613 1.33917C4.38381 1.33917 1.41338 4.29513 1.41194 7.92844C1.41144 9.15453 1.75094 10.3493 2.39438 11.3875L2.42425 11.4354L2.58175 11.6847L1.91281 14.1163L4.41888 13.4622L4.66069 13.6048C5.66113 14.1957 6.80569 14.5129 7.97425 14.5232L8.03081 14.5234H8.03356C11.6831 14.5234 14.6534 11.5673 14.6549 7.93373C14.6556 6.17296 13.9676 4.51724 12.7174 3.27168C11.4672 2.02612 9.80469 1.33973 8.03613 1.33911M5.213 4.26645C5.34562 4.26645 5.47863 4.26769 5.5945 4.2736C5.71675 4.27958 5.88081 4.22739 6.04231 4.61359C6.10431 4.76163 6.19856 4.99034 6.29506 5.22396L6.31575 5.27404C6.47106 5.65004 6.62631 6.02492 6.65619 6.08444C6.70587 6.18353 6.739 6.29935 6.67269 6.43146C6.60644 6.56376 6.57313 6.6463 6.47369 6.76212C6.37413 6.87769 6.26469 7.02044 6.17513 7.10913L6.1605 7.12363L6.146 7.13837C6.05725 7.22974 5.983 7.33449 6.08787 7.51325C6.20394 7.71167 6.60337 8.36054 7.19513 8.88576C7.95544 9.56064 8.59688 9.76988 8.79594 9.86909C8.995 9.9683 9.11112 9.95169 9.22719 9.81933C9.34337 9.68722 9.72475 9.24099 9.8575 9.04263C9.99019 8.84434 10.1229 8.87749 10.3054 8.94355C10.3921 8.97496 10.6587 9.09973 10.9361 9.23272L11.0224 9.27414C11.3001 9.40788 11.5709 9.54086 11.6655 9.58801C11.8646 9.68722 11.9973 9.73679 12.047 9.81933C12.0968 9.90206 12.0968 10.2986 11.9309 10.7614C11.765 11.2241 10.9698 11.6465 10.5873 11.7034C10.2444 11.7543 9.81044 11.7756 9.33356 11.6249C9.04456 11.5335 8.67369 11.4117 8.19875 11.2076C6.202 10.3496 4.89781 8.34848 4.79838 8.21636L4.79163 8.20741C4.67031 8.04606 3.9855 7.12232 3.9855 6.16699C3.9855 5.19199 4.49981 4.71274 4.68219 4.51438C4.86469 4.31621 5.08031 4.26645 5.213 4.26645Z" fill="#3C3C3B"/>
</svg>
