<svg width="22" height="24" viewBox="0 0 22 24" fill="none" xmlns="http://www.w3.org/2000/svg">
<path d="M11.0021 0C11.9879 0 12.9429 0.129825 13.8517 0.372971L11.5126 2.71092C11.3352 2.88908 11.1786 3.08693 11.0461 3.30063H11.0021C9.4789 3.30063 7.9899 3.75232 6.7234 4.59857C5.4569 5.44481 4.46978 6.64762 3.88687 8.05488C3.30397 9.46214 3.15145 11.0107 3.44861 12.5046C3.74578 13.9985 4.47927 15.3708 5.55634 16.4479C6.63341 17.5249 8.00569 18.2584 9.49963 18.5556C10.9936 18.8528 12.5421 18.7003 13.9493 18.1173C15.3566 17.5344 16.5594 16.5473 17.4057 15.2808C18.2519 14.0143 18.7036 12.5253 18.7036 11.0021V10.9581C18.9163 10.8261 19.1125 10.6702 19.2922 10.4905L21.6312 8.15256C21.8744 9.06134 22.0042 10.0163 22.0042 11.0021C22.0042 17.0786 17.0786 22.0042 11.0021 22.0042C4.92564 22.0042 0 17.0786 0 11.0021C0 4.92564 4.92564 0 11.0021 0ZM10.5466 5.51976C10.5466 6.45604 10.5004 7.40552 10.551 8.3407L9.95691 8.93481C9.75254 9.13918 9.59042 9.3818 9.47982 9.64883C9.36922 9.91585 9.31229 10.202 9.31229 10.4911C9.31229 10.7801 9.36922 11.0663 9.47982 11.3333C9.59042 11.6003 9.75254 11.8429 9.95691 12.0473C10.1613 12.2517 10.4039 12.4138 10.6709 12.5244C10.9379 12.635 11.2241 12.6919 11.5132 12.6919C11.8022 12.6919 12.0884 12.635 12.3554 12.5244C12.6224 12.4138 12.865 12.2517 13.0694 12.0473L13.6635 11.4532C14.5987 11.5038 15.5471 11.4576 16.4845 11.4576C16.3975 12.5032 16.0134 13.5021 15.3775 14.3365C14.7415 15.171 13.8801 15.8061 12.895 16.1671C11.9099 16.5281 10.842 16.5998 9.81749 16.3738C8.79293 16.1479 7.85436 15.6336 7.11248 14.8917C6.3706 14.1499 5.85634 13.2113 5.63037 12.1867C5.40439 11.1622 5.47612 10.0944 5.8371 9.10924C6.19808 8.12411 6.83324 7.26275 7.66769 6.62676C8.50213 5.99077 9.50105 5.60667 10.5466 5.51976ZM18.1579 0.139727C18.3587 0.22299 18.5304 0.363881 18.6512 0.544615C18.772 0.725349 18.8365 0.937825 18.8367 1.15522V3.16861H20.849C21.0666 3.16865 21.2792 3.23321 21.4601 3.3541C21.641 3.475 21.782 3.64681 21.8652 3.84782C21.9485 4.04883 21.9703 4.27001 21.9278 4.48339C21.8854 4.69678 21.7807 4.8928 21.6268 5.04667L17.7354 8.93371C17.5291 9.14006 17.2493 9.25601 16.9576 9.25607H14.3027L12.2916 11.2684C12.0851 11.4748 11.8051 11.5908 11.5132 11.5908C11.2212 11.5908 10.9412 11.4748 10.7348 11.2684C10.5283 11.0619 10.4123 10.7819 10.4123 10.49C10.4123 10.198 10.5283 9.91801 10.7348 9.71156L12.747 7.70148V5.04557C12.7469 4.90091 12.7753 4.75765 12.8307 4.62399C12.886 4.49033 12.9671 4.36889 13.0694 4.26662L16.9587 0.377372C17.1125 0.223417 17.3086 0.118557 17.522 0.0760591C17.7355 0.0335613 17.9568 0.0553352 18.1579 0.138627" fill="#7CCF00"/>
</svg>
