<svg width="23" height="22" viewBox="0 0 23 22" fill="none" xmlns="http://www.w3.org/2000/svg">
<path d="M11.4994 18.4305L5.92492 21.7937C5.67866 21.9507 5.4212 22.0179 5.15255 21.9955C4.8839 21.9731 4.64883 21.8834 4.44735 21.7264C4.24586 21.5695 4.08914 21.3735 3.97721 21.1385C3.86527 20.9036 3.84288 20.6399 3.91004 20.3475L5.38762 13.991L0.451166 9.71972C0.227291 9.51793 0.0875924 9.28788 0.0320712 9.02959C-0.0234499 8.77129 -0.00688319 8.51928 0.0817716 8.27354C0.170426 8.0278 0.304752 7.826 0.484748 7.66816C0.664744 7.51031 0.911007 7.40941 1.22354 7.36547L7.73832 6.79372L10.2569 0.807174C10.3689 0.538116 10.5426 0.336322 10.7781 0.201793C11.0136 0.0672643 11.2541 0 11.4994 0C11.7448 0 11.9852 0.0672643 12.2208 0.201793C12.4563 0.336322 12.63 0.538116 12.7419 0.807174L15.2605 6.79372L21.7753 7.36547C22.0887 7.41031 22.335 7.5112 22.5141 7.66816C22.6932 7.82511 22.8275 8.0269 22.9171 8.27354C23.0066 8.52017 23.0236 8.77264 22.9681 9.03094C22.9126 9.28923 22.7725 9.51883 22.5477 9.71972L17.6112 13.991L19.0888 20.3475C19.156 20.639 19.1336 20.9027 19.0216 21.1385C18.9097 21.3744 18.753 21.5704 18.5515 21.7264C18.35 21.8825 18.115 21.9722 17.8463 21.9955C17.5777 22.0188 17.3202 21.9516 17.0739 21.7937L11.4994 18.4305Z" fill="#7CCF00"/>
</svg>
