<svg width="26" height="18" viewBox="0 0 26 18" fill="none" xmlns="http://www.w3.org/2000/svg">
<path d="M13 5.45453C12.0597 5.45453 11.1579 5.82807 10.493 6.49297C9.82808 7.15788 9.45455 8.05968 9.45455 8.99999C9.45455 9.9403 9.82808 10.8421 10.493 11.507C11.1579 12.1719 12.0597 12.5454 13 12.5454C13.9403 12.5454 14.8421 12.1719 15.507 11.507C16.1719 10.8421 16.5455 9.9403 16.5455 8.99999C16.5455 8.05968 16.1719 7.15788 15.507 6.49297C14.8421 5.82807 13.9403 5.45453 13 5.45453ZM13 14.9091C11.4328 14.9091 9.92981 14.2865 8.82164 13.1783C7.71347 12.0702 7.09091 10.5672 7.09091 8.99999C7.09091 7.4328 7.71347 5.9298 8.82164 4.82163C9.92981 3.71346 11.4328 3.0909 13 3.0909C14.5672 3.0909 16.0702 3.71346 17.1784 4.82163C18.2865 5.9298 18.9091 7.4328 18.9091 8.99999C18.9091 10.5672 18.2865 12.0702 17.1784 13.1783C16.0702 14.2865 14.5672 14.9091 13 14.9091ZM13 0.136353C7.09091 0.136353 2.04455 3.81181 0 8.99999C2.04455 14.1882 7.09091 17.8636 13 17.8636C18.9091 17.8636 23.9555 14.1882 26 8.99999C23.9555 3.81181 18.9091 0.136353 13 0.136353Z" fill="#7CCF00"/>
</svg>
