<svg width="40" height="40" viewBox="0 0 40 40" fill="none" xmlns="http://www.w3.org/2000/svg">
<circle cx="20" cy="20" r="20" fill="white"/>
<path d="M28.2512 24.9975L24.2991 21.4041C24.1124 21.2341 23.8669 21.1434 23.6145 21.1512C23.3621 21.159 23.1226 21.2647 22.9468 21.446L20.6202 23.8386C20.0602 23.7316 18.9344 23.3807 17.7755 22.2247C16.6166 21.0648 16.2657 19.9361 16.1616 19.38L18.5523 17.0525C18.7336 16.8766 18.8393 16.6372 18.8471 16.3848C18.8549 16.1324 18.7642 15.8868 18.5941 15.7001L15.0018 11.749C14.8317 11.5617 14.5953 11.4481 14.3428 11.4323C14.0902 11.4165 13.8415 11.4998 13.6494 11.6644L11.5397 13.4737C11.3716 13.6424 11.2713 13.8669 11.2577 14.1047C11.2432 14.3478 10.9651 20.1053 15.4296 24.5716C19.3243 28.4654 24.2029 28.7503 25.5465 28.7503C25.7429 28.7503 25.8634 28.7444 25.8955 28.7425C26.1331 28.7285 26.3572 28.6278 26.5255 28.4596L28.3339 26.3489C28.4991 26.1574 28.583 25.9088 28.5676 25.6564C28.5521 25.4039 28.4386 25.1674 28.2512 24.9975Z" fill="#7CCF00"/>
</svg>
