<svg width="181" height="29" viewBox="0 0 181 29" fill="none" xmlns="http://www.w3.org/2000/svg">
<g clip-path="url(#clip0_75_908)">
<path d="M54.9336 25.8641H48.6572L47.641 28.8208H43.3671L49.4642 12.0062H54.2163L60.3134 28.8208H55.9797L54.9336 25.8641ZM53.8876 22.7281L51.7954 16.5757L49.7332 22.7281H53.8876Z" fill="#3C3C3B"/>
<path d="M72.4179 17.3522C72.1191 16.7848 71.6707 16.3666 71.1029 16.068C70.535 15.7693 69.8775 15.62 69.1004 15.62C67.7853 15.62 66.7094 16.068 65.9024 16.9341C65.0954 17.8002 64.7069 18.965 64.7069 20.4284C64.7069 21.9815 65.1253 23.1761 65.9622 24.0422C66.799 24.9083 67.9647 25.3563 69.4292 25.3563C70.4453 25.3563 71.2822 25.0875 71.9696 24.5798C72.657 24.0721 73.1651 23.3254 73.4939 22.3697H69.6683L71.3121 19.3532H77.2V23.1462C76.9011 24.1617 76.393 25.1174 75.6458 25.9835C74.9285 26.8496 74.002 27.5664 72.8663 28.104C71.7604 28.6416 70.4752 28.9104 69.0705 28.9104C67.3968 28.9104 65.9323 28.552 64.6172 27.8352C63.3022 27.1184 62.3159 26.103 61.5687 24.8187C60.8514 23.5345 60.4927 22.0412 60.4927 20.3986C60.4927 18.7261 60.8514 17.2626 61.5687 15.9485C62.286 14.6344 63.3022 13.6488 64.5874 12.9022C65.8725 12.1854 67.3669 11.827 69.0107 11.827C71.0132 11.827 72.7168 12.3048 74.0916 13.2904C75.4665 14.276 76.393 15.62 76.8413 17.3223H72.4179V17.3522Z" fill="#3C3C3B"/>
<path d="M88.0791 28.8507L84.5822 22.4892H83.5959V28.8208H79.5013V12.036H86.3755C87.6906 12.036 88.8263 12.275 89.7528 12.723C90.6793 13.2008 91.3966 13.828 91.8449 14.6344C92.2933 15.4408 92.5324 16.3368 92.5324 17.3223C92.5324 18.4274 92.2036 19.4428 91.576 20.309C90.9483 21.1751 90.0218 21.8023 88.7964 22.1905L92.6818 28.8507H88.0791ZM83.6258 19.5922H86.1663C86.9135 19.5922 87.4813 19.413 87.84 19.0546C88.2285 18.6962 88.4079 18.1586 88.4079 17.5015C88.4079 16.8744 88.2285 16.3666 87.84 16.0082C87.4515 15.6498 86.9135 15.4706 86.1663 15.4706H83.6258V19.5922Z" fill="#3C3C3B"/>
<path d="M99.2272 12.036V28.8507H95.1326V12.036H99.2272Z" fill="#3C3C3B"/>
<path d="M104.966 28.4027C103.979 28.0144 103.202 27.4171 102.634 26.6406C102.037 25.8641 101.738 24.9083 101.708 23.8033H106.072C106.131 24.4305 106.341 24.9083 106.729 25.2369C107.088 25.5654 107.566 25.7147 108.164 25.7147C108.761 25.7147 109.24 25.5654 109.598 25.2966C109.957 25.0278 110.136 24.6395 110.136 24.1318C110.136 23.7137 109.987 23.3852 109.718 23.1164C109.449 22.8476 109.09 22.6086 108.702 22.4593C108.283 22.2801 107.715 22.0711 106.968 21.862C105.892 21.5335 104.996 21.2049 104.308 20.8465C103.621 20.518 103.023 20.0103 102.545 19.3532C102.037 18.6962 101.798 17.8599 101.798 16.7848C101.798 15.2317 102.365 14.0072 103.501 13.1112C104.637 12.2152 106.101 11.7971 107.925 11.7971C109.778 11.7971 111.272 12.2451 112.408 13.1112C113.543 14.0072 114.141 15.2317 114.231 16.8146H109.807C109.778 16.277 109.568 15.8589 109.21 15.5304C108.851 15.2317 108.373 15.0525 107.805 15.0525C107.297 15.0525 106.908 15.172 106.609 15.4408C106.311 15.7096 106.101 16.1277 106.101 16.6056C106.101 17.1431 106.37 17.5613 106.878 17.8599C107.387 18.1586 108.194 18.4871 109.269 18.8455C110.345 19.2039 111.242 19.5623 111.93 19.8908C112.617 20.2194 113.185 20.7271 113.693 21.3543C114.201 21.9815 114.44 22.8177 114.44 23.8332C114.44 24.7889 114.201 25.655 113.723 26.4315C113.245 27.208 112.527 27.8352 111.601 28.3131C110.674 28.7909 109.568 29 108.313 29C107.058 29 105.952 28.8208 104.966 28.4027Z" fill="#3C3C3B"/>
<path d="M120.537 27.9248C119.222 27.1782 118.176 26.1627 117.399 24.8486C116.622 23.5345 116.233 22.0412 116.233 20.3986C116.233 18.7559 116.622 17.2925 117.399 15.9784C118.176 14.6643 119.222 13.6488 120.537 12.9022C121.852 12.1555 123.317 11.7971 124.871 11.7971C126.455 11.7971 127.89 12.1555 129.205 12.9022C130.52 13.6488 131.566 14.6643 132.313 15.9784C133.06 17.2925 133.449 18.7559 133.449 20.3986C133.449 22.0412 133.06 23.5345 132.313 24.8486C131.536 26.1627 130.52 27.1782 129.205 27.9248C127.89 28.6715 126.455 29.0299 124.871 29.0299C123.287 29 121.852 28.6416 120.537 27.9248ZM128.099 23.9228C128.906 23.0268 129.294 21.862 129.294 20.3687C129.294 18.8754 128.906 17.7106 128.099 16.8146C127.292 15.9186 126.216 15.5005 124.871 15.5005C123.526 15.5005 122.42 15.9485 121.613 16.8146C120.806 17.6807 120.418 18.8754 120.418 20.3687C120.418 21.862 120.806 23.0268 121.613 23.9228C122.42 24.8187 123.496 25.2369 124.871 25.2369C126.216 25.2667 127.292 24.8187 128.099 23.9228Z" fill="#3C3C3B"/>
<path d="M139.845 25.6849H145.224V28.8507H135.75V12.036H139.845V25.6849Z" fill="#3C3C3B"/>
<path d="M156.253 4.39032C156.133 4.12152 155.924 3.94233 155.715 3.82286C155.476 3.7034 155.207 3.6138 154.908 3.6138C154.579 3.6138 154.28 3.7034 154.011 3.85273C153.742 4.00206 153.533 4.21112 153.384 4.50978C153.234 4.80845 153.175 5.10711 153.175 5.4655C153.175 5.82389 153.234 6.15242 153.384 6.45108C153.533 6.71988 153.742 6.95881 154.011 7.10814C154.28 7.25747 154.579 7.34707 154.908 7.34707C155.356 7.34707 155.745 7.2276 156.014 6.95881C156.313 6.69001 156.462 6.36148 156.522 5.91349H154.609V5.25644H157.419V5.91349C157.359 6.30175 157.209 6.66014 157 7.01854C156.761 7.34706 156.462 7.61586 156.104 7.82492C155.745 8.03399 155.326 8.12358 154.878 8.12358C154.4 8.12358 153.952 8.00412 153.563 7.79506C153.175 7.58599 152.846 7.25747 152.607 6.86921C152.368 6.48095 152.248 6.03296 152.248 5.52523C152.248 5.01751 152.368 4.56952 152.607 4.18126C152.846 3.793 153.145 3.46447 153.563 3.25541C153.952 3.04634 154.4 2.92688 154.878 2.92688C155.416 2.92688 155.894 3.04634 156.343 3.31514C156.761 3.58393 157.06 3.97219 157.269 4.45005H156.253V4.39032Z" fill="#3C3C3B"/>
<path d="M161.603 8.03399L160.437 6.00309H159.81V8.03399H158.973V2.92688H160.736C161.125 2.92688 161.453 2.98661 161.722 3.13594C161.991 3.28527 162.201 3.46447 162.32 3.67353C162.44 3.8826 162.529 4.15139 162.529 4.45005C162.529 4.77858 162.44 5.07724 162.231 5.34604C162.051 5.61483 161.752 5.79403 161.334 5.91349L162.589 8.03399H161.603ZM159.81 5.31617H160.736C161.035 5.31617 161.274 5.22657 161.453 5.07724C161.603 4.92791 161.693 4.71885 161.693 4.45005C161.693 4.18126 161.603 3.97219 161.453 3.82286C161.304 3.67353 161.065 3.58393 160.736 3.58393H159.81V5.31617Z" fill="#3C3C3B"/>
<path d="M165.16 2.92688V6.18229C165.16 6.57055 165.249 6.86921 165.458 7.0484C165.668 7.25747 165.937 7.34707 166.295 7.34707C166.654 7.34707 166.953 7.25747 167.162 7.0484C167.371 6.83934 167.461 6.57055 167.461 6.18229V2.92688H168.298V6.15242C168.298 6.57055 168.208 6.92894 168.029 7.19773C167.849 7.4964 167.61 7.70546 167.311 7.85479C167.013 8.00412 166.684 8.06385 166.295 8.06385C165.937 8.06385 165.608 8.00412 165.279 7.85479C164.98 7.70546 164.741 7.4964 164.562 7.19773C164.382 6.89907 164.293 6.57055 164.293 6.15242V2.92688H165.16Z" fill="#3C3C3B"/>
<path d="M173.528 5.16684C173.409 5.40577 173.199 5.58496 172.93 5.7343C172.661 5.88363 172.303 5.94336 171.884 5.94336H170.958V8.00412H170.121V2.92688H171.884C172.273 2.92688 172.602 2.98661 172.871 3.13594C173.14 3.28527 173.349 3.46447 173.468 3.67353C173.618 3.91246 173.678 4.15139 173.678 4.45005C173.707 4.68898 173.648 4.95778 173.528 5.16684ZM172.631 5.04737C172.781 4.89804 172.871 4.68898 172.871 4.42019C172.871 3.85273 172.542 3.58393 171.914 3.58393H170.988V5.25644H171.914C172.213 5.2863 172.452 5.1967 172.631 5.04737Z" fill="#3C3C3B"/>
<path d="M176.278 7.73532C175.889 7.52626 175.56 7.19773 175.321 6.80947C175.082 6.42122 174.963 5.97322 174.963 5.4655C174.963 4.95778 175.082 4.50978 175.321 4.12152C175.56 3.73326 175.859 3.40474 176.278 3.19567C176.666 2.98661 177.115 2.86715 177.593 2.86715C178.071 2.86715 178.519 2.98661 178.908 3.19567C179.296 3.40474 179.625 3.73326 179.864 4.12152C180.103 4.50978 180.223 4.95778 180.223 5.4655C180.223 5.97322 180.103 6.42122 179.864 6.80947C179.625 7.19773 179.326 7.52626 178.908 7.73532C178.519 7.94439 178.071 8.06385 177.593 8.06385C177.115 8.06385 176.666 7.97425 176.278 7.73532ZM178.489 7.10814C178.758 6.95881 178.968 6.71988 179.117 6.45108C179.267 6.15242 179.356 5.82389 179.356 5.4655C179.356 5.07724 179.267 4.74871 179.117 4.47992C178.968 4.18126 178.758 3.97219 178.489 3.82286C178.22 3.67353 177.922 3.58393 177.593 3.58393C177.264 3.58393 176.965 3.67353 176.696 3.82286C176.427 3.97219 176.218 4.18126 176.069 4.47992C175.919 4.77858 175.859 5.10711 175.859 5.4655C175.859 5.85376 175.919 6.18229 176.069 6.45108C176.218 6.74974 176.427 6.95881 176.696 7.10814C176.965 7.25747 177.264 7.34706 177.593 7.34706C177.922 7.34706 178.22 7.28733 178.489 7.10814Z" fill="#3C3C3B"/>
<path d="M164.442 21.6529C165.07 22.4295 165.369 23.3553 165.369 24.3708C165.369 25.2966 165.13 26.103 164.681 26.7899C164.233 27.4768 163.575 28.0443 162.709 28.4325C161.842 28.8208 160.856 29.0299 159.66 29.0299H152.248V11.7971H159.361C160.527 11.7971 161.543 11.9763 162.38 12.3646C163.217 12.7528 163.874 13.2606 164.293 13.9475C164.741 14.6344 164.95 15.3811 164.95 16.2472C164.95 17.2626 164.681 18.0989 164.143 18.7559C163.605 19.4428 162.888 19.9207 162.021 20.1895C163.008 20.3687 163.815 20.8465 164.442 21.6529ZM155.715 18.9053H158.883C159.72 18.9053 160.348 18.7261 160.796 18.3378C161.244 17.9794 161.453 17.4418 161.453 16.7549C161.453 16.068 161.244 15.5304 160.796 15.1421C160.348 14.7539 159.72 14.5747 158.883 14.5747H155.715V18.9053ZM161.155 25.5953C161.633 25.207 161.872 24.6395 161.872 23.9228C161.872 23.1761 161.633 22.6087 161.125 22.1905C160.617 21.7724 159.959 21.5633 159.122 21.5633H155.715V26.1926H159.182C160.049 26.1926 160.676 26.0134 161.155 25.5953Z" fill="#3C3C3B"/>
<path d="M177.025 29L173.229 22.2801H171.615V29H168.148V11.7971H174.604C175.949 11.7971 177.085 12.036 178.011 12.5139C178.938 12.9918 179.655 13.6189 180.133 14.4253C180.611 15.2317 180.851 16.1277 180.851 17.1133C180.851 18.2482 180.522 19.2636 179.864 20.1895C179.207 21.1153 178.22 21.7425 176.935 22.0711L181.06 29.0597H177.025V29ZM171.585 19.7116H174.484C175.411 19.7116 176.128 19.4727 176.577 19.0247C177.025 18.5767 177.264 17.9495 177.264 17.1432C177.264 16.3666 177.025 15.7394 176.577 15.2915C176.128 14.8435 175.411 14.6344 174.484 14.6344H171.585V19.7116Z" fill="#3C3C3B"/>
<path d="M17.4843 22.9372L13.5391 26.999L10.102 23.4748L4.72226 29H23.4619L17.4843 22.9372Z" fill="#5DB139"/>
<path d="M17.5441 15.7693L11.3872 22.0711L13.6288 24.311L17.6338 20.1895L26.2414 29H30.3958L17.5441 15.7693Z" fill="#213A8E"/>
<path d="M29.0509 19.0546C29.0509 20.7271 28.6922 22.3399 28.0347 23.7734L17.5441 12.9619L10.2216 20.4882L7.08339 23.7436C6.45574 22.31 6.09709 20.7271 6.09709 19.0546C6.09709 12.723 11.2378 7.55613 17.574 7.55613C23.9102 7.58599 29.0509 12.723 29.0509 19.0546Z" fill="#F8AD33"/>
<path d="M1.07596 16.4861H4.60271C4.45327 17.173 4.39349 17.9197 4.36361 18.6365H1.07596C0.478203 18.6365 0 18.1586 0 17.5613C0 16.964 0.478203 16.4861 1.07596 16.4861Z" fill="#F8AD33"/>
<path d="M6.66496 5.13697L9.86295 8.33265C9.26519 8.75077 8.72721 9.22863 8.21912 9.73635L5.14069 6.66015C4.72226 6.24202 4.72226 5.5551 5.14069 5.13697C5.55912 4.71885 6.24653 4.71885 6.66496 5.13697Z" fill="#F8AD33"/>
<path d="M18.6499 1.07518V5.88363C18.2913 5.85376 17.9326 5.82389 17.574 5.82389C17.2153 5.82389 16.8567 5.85376 16.498 5.88363V1.07518C16.498 0.477858 16.9762 0 17.574 0C18.1717 0 18.6499 0.477858 18.6499 1.07518Z" fill="#F8AD33"/>
<path d="M29.9774 5.13697C30.3958 5.5551 30.3958 6.24202 29.9774 6.66015L26.9288 9.73635C26.4207 9.22863 25.8828 8.75077 25.285 8.33265L28.483 5.13697C28.8715 4.71885 29.5589 4.71885 29.9774 5.13697Z" fill="#F8AD33"/>
<path d="M35.1181 17.5613C35.1181 18.1586 34.6399 18.6365 34.0421 18.6365H30.7545C30.7246 17.8898 30.6349 17.173 30.5154 16.4861H34.0421C34.6399 16.4861 35.1181 16.964 35.1181 17.5613Z" fill="#F8AD33"/>
</g>
<defs>
<clipPath id="clip0_75_908">
<rect width="181" height="29" fill="white"/>
</clipPath>
</defs>
</svg>
