<svg width="181" height="29" viewBox="0 0 181 29" fill="none" xmlns="http://www.w3.org/2000/svg">
<g clip-path="url(#clip0_75_939)">
<path d="M54.9336 25.8642H48.6572L47.641 28.821H43.3671L49.4642 12.0063H54.2163L60.3134 28.821H55.9797L54.9336 25.8642ZM53.8876 22.7283L51.7954 16.5759L49.7332 22.7283H53.8876Z" fill="white"/>
<path d="M72.4179 17.3524C72.1191 16.7849 71.6707 16.3668 71.1029 16.0681C70.535 15.7695 69.8775 15.6201 69.1004 15.6201C67.7853 15.6201 66.7094 16.0681 65.9024 16.9343C65.0954 17.8004 64.7069 18.9652 64.7069 20.4286C64.7069 21.9816 65.1253 23.1763 65.9622 24.0424C66.799 24.9085 67.9647 25.3565 69.4292 25.3565C70.4453 25.3565 71.2822 25.0877 71.9696 24.58C72.657 24.0723 73.1651 23.3256 73.4939 22.3699H69.6683L71.3121 19.3534H77.2V23.1464C76.9011 24.1619 76.393 25.1176 75.6458 25.9837C74.9285 26.8498 74.002 27.5666 72.8663 28.1042C71.7604 28.6418 70.4752 28.9106 69.0705 28.9106C67.3968 28.9106 65.9323 28.5522 64.6172 27.8354C63.3022 27.1186 62.3159 26.1032 61.5687 24.8189C60.8514 23.5347 60.4927 22.0414 60.4927 20.3987C60.4927 18.7262 60.8514 17.2628 61.5687 15.9487C62.286 14.6346 63.3022 13.649 64.5874 12.9023C65.8725 12.1855 67.3669 11.8271 69.0107 11.8271C71.0132 11.8271 72.7168 12.305 74.0916 13.2906C75.4665 14.2762 76.393 15.6201 76.8413 17.3225H72.4179V17.3524Z" fill="white"/>
<path d="M88.0791 28.8508L84.5822 22.4893H83.5959V28.8209H79.5013V12.0361H86.3755C87.6906 12.0361 88.8263 12.2751 89.7528 12.7231C90.6793 13.2009 91.3966 13.8281 91.8449 14.6345C92.2933 15.4409 92.5324 16.3369 92.5324 17.3224C92.5324 18.4275 92.2036 19.4429 91.576 20.309C90.9483 21.1752 90.0218 21.8024 88.7964 22.1906L92.6818 28.8508H88.0791ZM83.6258 19.5923H86.1663C86.9135 19.5923 87.4813 19.4131 87.84 19.0547C88.2285 18.6963 88.4079 18.1587 88.4079 17.5016C88.4079 16.8744 88.2285 16.3667 87.84 16.0083C87.4515 15.6499 86.9135 15.4707 86.1663 15.4707H83.6258V19.5923Z" fill="white"/>
<path d="M99.2272 12.0361V28.8508H95.1326V12.0361H99.2272Z" fill="white"/>
<path d="M104.966 28.4029C103.979 28.0147 103.202 27.4173 102.634 26.6408C102.037 25.8643 101.738 24.9086 101.708 23.8035H106.072C106.131 24.4307 106.341 24.9086 106.729 25.2371C107.088 25.5656 107.566 25.715 108.164 25.715C108.761 25.715 109.24 25.5656 109.598 25.2968C109.957 25.0281 110.136 24.6398 110.136 24.1321C110.136 23.7139 109.987 23.3854 109.718 23.1166C109.449 22.8478 109.09 22.6089 108.702 22.4596C108.283 22.2804 107.715 22.0713 106.968 21.8622C105.892 21.5337 104.996 21.2052 104.308 20.8468C103.621 20.5183 103.023 20.0105 102.545 19.3535C102.037 18.6964 101.798 17.8602 101.798 16.785C101.798 15.232 102.365 14.0075 103.501 13.1115C104.637 12.2155 106.101 11.7974 107.925 11.7974C109.778 11.7974 111.272 12.2454 112.408 13.1115C113.543 14.0075 114.141 15.232 114.231 16.8149H109.807C109.778 16.2773 109.568 15.8592 109.21 15.5306C108.851 15.232 108.373 15.0528 107.805 15.0528C107.297 15.0528 106.908 15.1722 106.609 15.441C106.311 15.7098 106.101 16.1279 106.101 16.6058C106.101 17.1434 106.37 17.5615 106.878 17.8602C107.387 18.1588 108.194 18.4874 109.269 18.8458C110.345 19.2042 111.242 19.5626 111.93 19.8911C112.617 20.2196 113.185 20.7273 113.693 21.3545C114.201 21.9817 114.44 22.818 114.44 23.8334C114.44 24.7891 114.201 25.6552 113.723 26.4318C113.245 27.2083 112.527 27.8355 111.601 28.3133C110.674 28.7912 109.568 29.0002 108.313 29.0002C107.058 29.0002 105.952 28.821 104.966 28.4029Z" fill="white"/>
<path d="M120.537 27.9251C119.222 27.1784 118.176 26.163 117.399 24.8489C116.622 23.5347 116.233 22.0414 116.233 20.3988C116.233 18.7562 116.622 17.2927 117.399 15.9786C118.176 14.6645 119.222 13.6491 120.537 12.9024C121.852 12.1558 123.317 11.7974 124.871 11.7974C126.455 11.7974 127.89 12.1558 129.205 12.9024C130.52 13.6491 131.566 14.6645 132.313 15.9786C133.06 17.2927 133.449 18.7562 133.449 20.3988C133.449 22.0414 133.06 23.5347 132.313 24.8489C131.536 26.163 130.52 27.1784 129.205 27.9251C127.89 28.6717 126.455 29.0301 124.871 29.0301C123.287 29.0002 121.852 28.6419 120.537 27.9251ZM128.099 23.923C128.906 23.027 129.294 21.8622 129.294 20.3689C129.294 18.8756 128.906 17.7109 128.099 16.8149C127.292 15.9189 126.216 15.5008 124.871 15.5008C123.526 15.5008 122.42 15.9488 121.613 16.8149C120.806 17.681 120.418 18.8756 120.418 20.3689C120.418 21.8622 120.806 23.027 121.613 23.923C122.42 24.819 123.496 25.2371 124.871 25.2371C126.216 25.267 127.292 24.819 128.099 23.923Z" fill="white"/>
<path d="M139.845 25.6849H145.224V28.8508H135.75V12.0361H139.845V25.6849Z" fill="white"/>
<path d="M156.253 4.3902C156.133 4.1214 155.924 3.94221 155.715 3.82274C155.476 3.70328 155.207 3.61368 154.908 3.61368C154.579 3.61368 154.28 3.70328 154.011 3.85261C153.742 4.00194 153.533 4.211 153.384 4.50966C153.234 4.80832 153.175 5.10698 153.175 5.46538C153.175 5.82377 153.234 6.1523 153.384 6.45096C153.533 6.71975 153.742 6.95868 154.011 7.10801C154.28 7.25734 154.579 7.34694 154.908 7.34694C155.356 7.34694 155.745 7.22748 156.014 6.95868C156.313 6.68989 156.462 6.36136 156.522 5.91337H154.609V5.25631H157.419V5.91337C157.359 6.30163 157.209 6.66002 157 7.01842C156.761 7.34694 156.462 7.61574 156.104 7.8248C155.745 8.03386 155.326 8.12346 154.878 8.12346C154.4 8.12346 153.952 8.004 153.563 7.79493C153.175 7.58587 152.846 7.25734 152.607 6.86909C152.368 6.48083 152.248 6.03283 152.248 5.52511C152.248 5.01739 152.368 4.56939 152.607 4.18113C152.846 3.79288 153.145 3.46435 153.563 3.25528C153.952 3.04622 154.4 2.92676 154.878 2.92676C155.416 2.92676 155.894 3.04622 156.343 3.31502C156.761 3.58381 157.06 3.97207 157.269 4.44993H156.253V4.3902Z" fill="white"/>
<path d="M161.603 8.03386L160.437 6.00297H159.81V8.03386H158.973V2.92676H160.736C161.125 2.92676 161.453 2.98649 161.722 3.13582C161.991 3.28515 162.201 3.46435 162.32 3.67341C162.44 3.88247 162.529 4.15127 162.529 4.44993C162.529 4.77846 162.44 5.07712 162.231 5.34591C162.051 5.61471 161.752 5.7939 161.334 5.91337L162.589 8.03386H161.603ZM159.81 5.31605H160.736C161.035 5.31605 161.274 5.22645 161.453 5.07712C161.603 4.92779 161.693 4.71872 161.693 4.44993C161.693 4.18113 161.603 3.97207 161.453 3.82274C161.304 3.67341 161.065 3.58381 160.736 3.58381H159.81V5.31605Z" fill="white"/>
<path d="M165.16 2.92676V6.18216C165.16 6.57042 165.249 6.86909 165.458 7.04828C165.668 7.25734 165.937 7.34694 166.295 7.34694C166.654 7.34694 166.953 7.25734 167.162 7.04828C167.371 6.83922 167.461 6.57042 167.461 6.18216V2.92676H168.298V6.1523C168.298 6.57042 168.208 6.92882 168.029 7.19761C167.849 7.49627 167.61 7.70534 167.311 7.85467C167.013 8.004 166.684 8.06373 166.295 8.06373C165.937 8.06373 165.608 8.004 165.279 7.85467C164.98 7.70534 164.741 7.49627 164.562 7.19761C164.382 6.89895 164.293 6.57042 164.293 6.1523V2.92676H165.16Z" fill="white"/>
<path d="M173.528 5.16672C173.409 5.40565 173.199 5.58484 172.93 5.73417C172.661 5.8835 172.303 5.94324 171.884 5.94324H170.958V8.004H170.121V2.92676H171.884C172.273 2.92676 172.602 2.98649 172.871 3.13582C173.14 3.28515 173.349 3.46435 173.468 3.67341C173.618 3.91234 173.678 4.15127 173.678 4.44993C173.707 4.68886 173.648 4.95765 173.528 5.16672ZM172.631 5.04725C172.781 4.89792 172.871 4.68886 172.871 4.42006C172.871 3.85261 172.542 3.58381 171.914 3.58381H170.988V5.25631H171.914C172.213 5.28618 172.452 5.19658 172.631 5.04725Z" fill="white"/>
<path d="M176.278 7.73536C175.889 7.5263 175.56 7.19777 175.321 6.80951C175.082 6.42126 174.963 5.97326 174.963 5.46554C174.963 4.95782 175.082 4.50982 175.321 4.12156C175.56 3.7333 175.859 3.40478 176.278 3.19571C176.666 2.98665 177.115 2.86719 177.593 2.86719C178.071 2.86719 178.519 2.98665 178.908 3.19571C179.296 3.40478 179.625 3.7333 179.864 4.12156C180.103 4.50982 180.223 4.95782 180.223 5.46554C180.223 5.97326 180.103 6.42126 179.864 6.80951C179.625 7.19777 179.326 7.5263 178.908 7.73536C178.519 7.94443 178.071 8.06389 177.593 8.06389C177.115 8.06389 176.666 7.97429 176.278 7.73536ZM178.489 7.10818C178.758 6.95885 178.968 6.71992 179.117 6.45112C179.267 6.15246 179.356 5.82393 179.356 5.46554C179.356 5.07728 179.267 4.74875 179.117 4.47996C178.968 4.1813 178.758 3.97223 178.489 3.8229C178.22 3.67357 177.922 3.58397 177.593 3.58397C177.264 3.58397 176.965 3.67357 176.696 3.8229C176.427 3.97223 176.218 4.1813 176.069 4.47996C175.919 4.77862 175.859 5.10715 175.859 5.46554C175.859 5.8538 175.919 6.18233 176.069 6.45112C176.218 6.74978 176.427 6.95885 176.696 7.10818C176.965 7.25751 177.264 7.34711 177.593 7.34711C177.922 7.34711 178.22 7.28737 178.489 7.10818Z" fill="white"/>
<path d="M164.442 21.6532C165.07 22.4297 165.369 23.3556 165.369 24.371C165.369 25.2968 165.13 26.1032 164.681 26.7902C164.233 27.4771 163.575 28.0445 162.709 28.4328C161.842 28.8211 160.856 29.0301 159.66 29.0301H152.248V11.7974H159.361C160.527 11.7974 161.543 11.9766 162.38 12.3648C163.217 12.7531 163.874 13.2608 164.293 13.9477C164.741 14.6346 164.95 15.3813 164.95 16.2474C164.95 17.2629 164.681 18.0991 164.143 18.7562C163.605 19.4431 162.888 19.9209 162.021 20.1897C163.008 20.3689 163.815 20.8468 164.442 21.6532ZM155.715 18.9055H158.883C159.72 18.9055 160.348 18.7263 160.796 18.338C161.244 17.9797 161.453 17.4421 161.453 16.7551C161.453 16.0682 161.244 15.5306 160.796 15.1424C160.348 14.7541 159.72 14.5749 158.883 14.5749H155.715V18.9055ZM161.155 25.5955C161.633 25.2073 161.872 24.6398 161.872 23.923C161.872 23.1764 161.633 22.6089 161.125 22.1908C160.617 21.7726 159.959 21.5636 159.122 21.5636H155.715V26.1928H159.182C160.049 26.1928 160.676 26.0136 161.155 25.5955Z" fill="white"/>
<path d="M177.025 29.0002L173.229 22.2804H171.615V29.0002H168.148V11.7974H174.604C175.949 11.7974 177.085 12.0363 178.011 12.5142C178.938 12.992 179.655 13.6192 180.133 14.4256C180.611 15.232 180.851 16.128 180.851 17.1135C180.851 18.2484 180.522 19.2639 179.864 20.1897C179.207 21.1156 178.22 21.7428 176.935 22.0713L181.06 29.06H177.025V29.0002ZM171.585 19.7119H174.484C175.411 19.7119 176.128 19.473 176.577 19.025C177.025 18.577 177.264 17.9498 177.264 17.1434C177.264 16.3669 177.025 15.7397 176.577 15.2917C176.128 14.8437 175.411 14.6346 174.484 14.6346H171.585V19.7119Z" fill="white"/>
<path d="M17.4843 22.937L13.5391 26.9988L10.102 23.4746L4.72226 28.9998H23.4619L17.4843 22.937Z" fill="#7CCF00"/>
<path d="M17.5441 15.7695L11.3872 22.0713L13.6288 24.3112L17.6338 20.1897L26.2414 29.0002H30.3958L17.5441 15.7695Z" fill="white"/>
<path d="M29.0509 19.0546C29.0509 20.7271 28.6922 22.3399 28.0347 23.7735L17.5441 12.9619L10.2216 20.4882L7.08339 23.7436C6.45574 22.31 6.09709 20.7271 6.09709 19.0546C6.09709 12.723 11.2378 7.55615 17.574 7.55615C23.9102 7.58602 29.0509 12.723 29.0509 19.0546Z" fill="#F8AD33"/>
<path d="M1.07596 16.4863H4.60271C4.45327 17.1732 4.39349 17.9199 4.36361 18.6367H1.07596C0.478203 18.6367 0 18.1588 0 17.5615C0 16.9642 0.478203 16.4863 1.07596 16.4863Z" fill="#F8AD33"/>
<path d="M6.66496 5.13684L9.86295 8.33251C9.26519 8.75064 8.72721 9.22849 8.21912 9.73622L5.14069 6.66001C4.72226 6.24188 4.72226 5.55496 5.14069 5.13684C5.55912 4.71871 6.24653 4.71871 6.66496 5.13684Z" fill="#F8AD33"/>
<path d="M18.6499 1.07518V5.88363C18.2913 5.85376 17.9326 5.82389 17.574 5.82389C17.2153 5.82389 16.8567 5.85376 16.498 5.88363V1.07518C16.498 0.477858 16.9762 0 17.574 0C18.1717 0 18.6499 0.477858 18.6499 1.07518Z" fill="#F8AD33"/>
<path d="M29.9774 5.13684C30.3958 5.55496 30.3958 6.24188 29.9774 6.66001L26.9288 9.73622C26.4207 9.22849 25.8828 8.75064 25.285 8.33251L28.483 5.13684C28.8715 4.71871 29.5589 4.71871 29.9774 5.13684Z" fill="#F8AD33"/>
<path d="M35.1181 17.5615C35.1181 18.1588 34.6399 18.6367 34.0421 18.6367H30.7545C30.7246 17.89 30.6349 17.1732 30.5154 16.4863H34.0421C34.6399 16.4863 35.1181 16.9642 35.1181 17.5615Z" fill="#F8AD33"/>
</g>
<defs>
<clipPath id="clip0_75_939">
<rect width="181" height="29" fill="white"/>
</clipPath>
</defs>
</svg>
