<svg width="970" height="164" viewBox="0 0 970 164" fill="none" xmlns="http://www.w3.org/2000/svg">
<g clip-path="url(#clip0_50_833)">
<path d="M110.268 133.926H50.523L40.8996 162.395H0L57.7405 2.40576H103.051L160.791 162.395H119.892L110.268 133.926ZM100.244 103.853L80.1952 45.3102L60.5474 103.853H100.244Z" fill="#18181B"/>
<path d="M276.673 52.9286C273.867 47.716 269.456 43.7062 264.243 40.8994C259.031 38.0925 252.615 36.4886 245.397 36.4886C232.967 36.4886 222.542 40.4984 214.923 48.9189C207.305 57.3394 203.696 68.1657 203.696 82.1999C203.696 97.036 207.706 108.263 215.725 116.684C223.745 125.104 234.571 129.114 248.605 129.114C258.229 129.114 266.248 126.708 273.065 121.896C279.48 117.085 284.693 109.867 287.5 101.046H251.011L266.649 72.1755H322.786V108.263C319.979 117.887 315.167 127.109 307.95 135.53C301.133 143.95 292.312 150.767 281.485 155.979C270.659 161.192 259.031 163.598 245.397 163.598C229.759 163.598 215.324 159.989 203.295 153.173C190.865 146.356 181.241 136.733 174.425 124.302C167.608 111.872 163.999 97.8379 163.999 82.1999C163.999 66.5618 167.608 52.1267 174.425 40.0974C181.241 27.6672 190.865 18.0437 203.295 11.2271C215.725 4.41054 229.759 0.801758 245.397 0.801758C264.644 0.801758 280.683 5.61347 293.915 14.8359C307.148 24.0584 315.568 36.8896 319.979 53.3296H276.673V52.9286Z" fill="#18181B"/>
<path d="M425.836 162.395L392.556 101.848H383.333V162.395H344.438V2.40576H409.797C422.228 2.40576 433.054 4.41064 441.876 8.82138C450.697 13.2321 457.514 19.2468 461.924 26.8653C466.335 34.4838 468.34 42.9043 468.34 52.5278C468.34 63.3541 465.533 72.5766 459.518 80.9971C453.504 89.4175 444.682 95.4322 433.054 98.64L469.944 161.994H425.836V162.395ZM382.932 74.1805H406.991C414.208 74.1805 419.421 72.5766 423.03 68.9678C426.638 65.359 428.242 60.5473 428.242 54.1317C428.242 48.117 426.638 43.3053 423.03 39.6965C419.421 36.0877 414.208 34.4838 406.991 34.4838H382.932V74.1805Z" fill="#18181B"/>
<path d="M531.694 2.40576V162.395H492.8V2.40576H531.694Z" fill="#18181B"/>
<path d="M586.628 158.385C577.405 154.777 569.787 148.762 564.574 141.544C558.961 133.926 556.154 125.104 555.753 114.679H597.454C598.256 120.694 600.261 125.104 603.469 128.312C607.078 131.52 611.488 133.124 617.102 133.124C622.716 133.124 627.527 131.921 630.735 129.114C633.943 126.307 635.948 122.699 635.948 117.887C635.948 113.877 634.745 110.669 631.938 108.263C629.131 105.858 625.924 103.452 622.315 101.848C618.305 100.244 613.092 98.239 605.875 96.2341C595.449 93.0263 587.029 89.8185 580.613 86.6107C574.198 83.4029 568.584 78.5912 563.772 72.5766C558.961 66.1609 556.555 58.1414 556.555 48.117C556.555 33.2809 561.767 21.6526 572.594 13.2321C583.42 4.81162 597.454 0.400879 614.696 0.400879C632.339 0.400879 646.373 4.81162 657.2 13.2321C668.026 21.6526 673.64 33.2809 674.442 48.518H632.339C631.938 43.3053 630.334 39.2956 626.725 36.4887C623.117 33.6819 618.706 32.078 613.092 32.078C608.281 32.078 604.672 33.2809 601.865 35.6868C599.058 38.0926 597.454 41.7014 597.454 46.5131C597.454 51.7258 599.86 55.7356 604.672 58.5424C609.484 61.3492 617.102 64.557 627.527 67.7648C637.953 71.3736 646.373 74.5814 652.789 77.7892C659.205 80.997 664.818 85.8088 669.63 91.8234C674.442 97.838 676.847 105.858 676.847 115.481C676.847 124.703 674.442 132.723 670.031 140.342C665.219 147.96 658.804 153.574 649.982 157.984C641.161 162.395 630.735 164.4 618.706 164.4C606.276 163.999 595.85 161.994 586.628 158.385Z" fill="#18181B"/>
<path d="M734.588 153.574C722.158 146.757 712.133 136.733 704.515 124.302C697.297 111.872 693.287 97.838 693.287 82.2C693.287 66.5619 696.896 52.5278 704.515 40.0975C711.732 27.6672 721.757 18.0438 734.588 10.8263C747.018 4.00966 761.052 0.400879 775.889 0.400879C791.126 0.400879 804.759 4.00966 817.189 10.8263C829.619 17.6428 839.644 27.6672 846.861 40.0975C854.079 52.5278 857.688 66.5619 857.688 82.2C857.688 97.838 854.079 111.872 846.861 124.302C839.644 136.733 829.619 146.757 817.189 153.574C804.759 160.39 791.126 163.999 775.889 163.999C761.052 163.999 747.018 160.39 734.588 153.574ZM806.764 115.481C814.382 107.06 818.392 95.8332 818.392 81.799C818.392 67.7648 814.382 56.5375 806.764 48.117C799.145 39.6965 788.72 35.2858 776.29 35.2858C763.458 35.2858 753.033 39.2955 745.414 47.716C737.796 56.1365 733.786 67.3639 733.786 81.799C733.786 95.8332 737.796 107.06 745.414 115.481C753.033 123.901 763.458 128.312 776.29 128.312C788.72 128.312 799.145 124.302 806.764 115.481Z" fill="#18181B"/>
<path d="M918.636 132.322H969.56V162.395H879.34V2.40576H918.235V132.322H918.636Z" fill="#18181B"/>
</g>
<defs>
<clipPath id="clip0_50_833">
<rect width="969.56" height="163.999" fill="white"/>
</clipPath>
</defs>
</svg>
