<svg width="130" height="130" viewBox="0 0 130 130" fill="none" xmlns="http://www.w3.org/2000/svg">
<g clip-path="url(#clip0_134_862)">
<path d="M64.8632 76.3032L59.0611 82.3242L54.0253 77.1242L46.0884 85.28H73.6758L64.8632 76.3032Z" fill="white"/>
<path d="M64.9726 65.739L55.8863 75.0442L59.2252 78.3284L65.0821 72.2526L77.781 85.28H83.9116L64.9726 65.739Z" fill="white"/>
<path d="M81.9411 70.6105C81.9411 73.0737 81.3937 75.4274 80.4632 77.5621L65.0274 61.6337L54.1895 72.6905L49.5916 77.5074C48.6611 75.4274 48.1137 73.0737 48.1137 70.6105C48.1137 61.2505 55.6674 53.6968 65.0274 53.6968C74.3327 53.6968 81.9411 61.2505 81.9411 70.6105Z" fill="white"/>
<path d="M40.7242 66.8337H45.9242C45.7053 67.8737 45.5958 68.9137 45.541 70.0084H40.7242C39.8484 70.0084 39.1368 69.2968 39.1368 68.421C39.1368 67.5453 39.8484 66.8337 40.7242 66.8337Z" fill="white"/>
<path d="M48.9347 50.0842L53.6421 54.7916C52.7663 55.3937 51.9453 56.1053 51.2337 56.8716L46.6905 52.3284C46.0884 51.7263 46.0884 50.6863 46.6905 50.0842C47.3474 49.4821 48.3326 49.4821 48.9347 50.0842Z" fill="white"/>
<path d="M66.6147 44.1179V51.2337C66.0674 51.1789 65.5747 51.1789 65.0274 51.1789C64.48 51.1789 63.9874 51.1789 63.44 51.2337V44.1179C63.44 43.2421 64.1516 42.5305 65.0274 42.5305C65.9032 42.5305 66.6147 43.2421 66.6147 44.1179Z" fill="white"/>
<path d="M83.3095 50.0842C83.9116 50.6863 83.9116 51.7263 83.3095 52.3284L78.7663 56.8716C78 56.1053 77.2337 55.4484 76.3579 54.7916L81.0653 50.0842C81.6674 49.4821 82.6526 49.4821 83.3095 50.0842Z" fill="white"/>
<path d="M90.8632 68.421C90.8632 69.2968 90.1516 70.0084 89.2758 70.0084H84.459C84.4042 68.9137 84.2948 67.8737 84.0758 66.8337H89.2758C90.1516 66.8337 90.8632 67.5453 90.8632 68.421Z" fill="white"/>
<path d="M12.5347 55.9411C12.0421 56.16 11.6589 56.4337 11.3305 56.8716C11.0568 57.3095 10.8379 57.8021 10.7831 58.3495C10.7284 59.0063 10.7831 59.6084 11.0021 60.1558C11.221 60.7032 11.6042 61.1411 12.0968 61.4695C12.5895 61.7979 13.2463 62.0168 13.9579 62.1263C14.6695 62.2358 15.3263 62.1263 15.9284 61.9074C16.5305 61.6884 16.9684 61.36 17.3516 60.8674C17.68 60.3747 17.9537 59.8274 18.0084 59.1158C18.1179 58.2947 17.9537 57.5832 17.5705 56.9811C17.1874 56.379 16.5853 55.9411 15.8189 55.7221L15.381 59.499L13.6842 59.28L14.3958 53.3137L16.3116 53.5326C17.0779 53.7516 17.7347 54.1895 18.3368 54.7368C18.9389 55.2842 19.3768 55.9958 19.6505 56.8168C19.9242 57.6379 20.0337 58.5137 19.9242 59.4442C19.8147 60.4842 19.4316 61.4147 18.8842 62.2358C18.2821 63.0568 17.5705 63.6042 16.64 63.9874C15.7095 64.3705 14.7242 64.48 13.6842 64.3705C12.5895 64.2611 11.6589 63.8779 10.8926 63.2758C10.0716 62.6737 9.5242 61.9074 9.14104 61.0316C8.75789 60.1011 8.64841 59.1158 8.75789 58.0758C8.9221 56.8168 9.35999 55.7768 10.0716 54.9558C10.7831 54.1347 11.7137 53.5874 12.8631 53.3684L12.5347 55.9411Z" fill="white"/>
<path d="M22.9895 47.7305L18.0632 48.4969L17.68 49.4821L21.7305 50.96L20.9642 53.04L10.5642 49.2084L11.9874 45.3221C12.2611 44.5011 12.6989 43.899 13.1916 43.4063C13.6842 42.9684 14.2316 42.64 14.7789 42.5305C15.3811 42.4211 15.9284 42.4758 16.5305 42.6947C17.2421 42.9684 17.7347 43.3516 18.1726 43.9537C18.5558 44.5558 18.72 45.2674 18.6653 46.1432L23.8105 45.2126L22.9895 47.7305ZM16.1474 48.9347L16.8042 47.1832C17.0232 46.6358 17.0232 46.1432 16.8589 45.76C16.6947 45.3769 16.3663 45.1032 15.8737 44.939C15.3811 44.7747 14.9979 44.7747 14.6147 44.939C14.2316 45.1032 13.9579 45.4863 13.7389 46.0337L13.0821 47.7853L16.1474 48.9347Z" fill="white"/>
<path d="M16.3116 36.2905L22.0589 40.0126C22.7158 40.3958 23.2631 40.56 23.8105 40.4505C24.3579 40.3411 24.7958 39.9579 25.1789 39.4105C25.5621 38.8084 25.7263 38.2063 25.5621 37.7137C25.4526 37.1663 25.0695 36.6737 24.4126 36.2905L18.6652 32.5684L19.8695 30.7074L25.6168 34.4295C26.3831 34.9221 26.9852 35.5242 27.3137 36.2358C27.6421 36.9474 27.7516 37.6589 27.6421 38.4253C27.5326 39.1916 27.2589 39.9032 26.821 40.6147C26.3831 41.3263 25.8358 41.8737 25.1789 42.2568C24.5221 42.64 23.8652 42.8042 23.0989 42.8042C22.3326 42.8042 21.5663 42.5305 20.8 41.9832L15.0526 38.2611L16.3116 36.2905Z" fill="white"/>
<path d="M31.4737 25.8358C31.6379 26.3832 31.6379 26.9853 31.4189 27.6421C31.2 28.299 30.8168 28.9558 30.16 29.5579L28.8463 30.8716L31.8568 33.8821L30.2695 35.4695L22.4968 27.5874L25.3979 24.7411C26 24.139 26.6021 23.7558 27.2589 23.5369C27.9158 23.3179 28.5179 23.3179 29.0652 23.4274C29.6674 23.5916 30.16 23.8653 30.6526 24.3579C31.0358 24.7958 31.3095 25.2884 31.4737 25.8358ZM29.5031 27.0947C29.5031 26.7116 29.3389 26.3284 29.0105 25.9453C28.2442 25.179 27.4231 25.2337 26.6021 26.0547L25.3431 27.3137L27.5874 29.6126L28.8463 28.3537C29.2842 27.9158 29.5031 27.5326 29.5031 27.0947Z" fill="white"/>
<path d="M38.3158 27.3684C37.3305 27.4231 36.4 27.2042 35.5242 26.7116C34.6484 26.2189 33.9368 25.5621 33.3347 24.6316C32.7873 23.701 32.4589 22.7705 32.4589 21.7305C32.4589 20.7452 32.6779 19.8147 33.1705 18.9389C33.6631 18.0631 34.32 17.3516 35.1958 16.8042C36.0716 16.2568 37.0021 15.9831 37.9873 15.9284C38.9726 15.8737 39.9031 16.0926 40.7789 16.5852C41.6547 17.0779 42.3663 17.7347 42.9684 18.6652C43.5158 19.5958 43.8442 20.5263 43.8442 21.5663C43.8442 22.5516 43.6252 23.4821 43.1326 24.3579C42.64 25.2337 41.9831 25.9452 41.1073 26.4926C40.2863 27.04 39.3558 27.3137 38.3158 27.3684ZM41.381 23.4821C41.6547 22.9347 41.7642 22.3874 41.7094 21.7852C41.6547 21.1831 41.4358 20.5263 41.0526 19.9242C40.6694 19.3221 40.1768 18.8295 39.6842 18.501C39.1368 18.1726 38.5895 18.0084 37.9873 18.0631C37.3852 18.0631 36.8379 18.2821 36.2358 18.6105C35.6884 18.9389 35.2505 19.3768 34.9768 19.9242C34.7031 20.4716 34.5937 21.0189 34.6484 21.621C34.7031 22.2231 34.9221 22.88 35.3052 23.4821C35.6884 24.0842 36.181 24.5768 36.6737 24.9052C37.221 25.2337 37.7684 25.3979 38.3705 25.3979C38.9726 25.3979 39.52 25.1789 40.1221 24.8505C40.6695 24.4674 41.1073 24.0295 41.381 23.4821Z" fill="white"/>
<path d="M60.0463 17.7347L55.6673 18.3916L55.2842 20.581L52.9852 20.9095L55.2842 9.36L57.8568 8.97684L63.44 19.3221L61.141 19.6505L60.0463 17.7347ZM59.2252 16.0379L56.981 11.7137L56.1052 16.5305L59.2252 16.0379Z" fill="white"/>
<path d="M72.6905 12.4253C72.4716 11.9326 72.1431 11.5495 71.76 11.2758C71.3221 11.0021 70.8295 10.8379 70.2274 10.7832C69.5705 10.7284 68.9684 10.8379 68.4758 11.0568C67.9284 11.2758 67.4905 11.6589 67.1621 12.2063C66.8337 12.6989 66.6147 13.3558 66.56 14.0674C66.5052 14.7789 66.56 15.4358 66.7789 16.0379C66.9979 16.64 67.381 17.0779 67.8737 17.4063C68.3663 17.7347 68.9684 17.9537 69.6252 18.0084C70.4463 18.1179 71.1579 17.9537 71.76 17.5158C72.3621 17.1326 72.7452 16.5305 73.0189 15.7642L69.2421 15.381L69.4063 13.6842L75.3726 14.2863L75.2084 16.2021C74.9895 16.9684 74.6063 17.6253 74.0589 18.2274C73.5116 18.8295 72.8547 19.2674 72.0337 19.5958C71.2126 19.9242 70.3368 20.0337 69.4063 19.9242C68.3663 19.8147 67.381 19.4863 66.6147 18.9389C65.7937 18.3916 65.1916 17.6253 64.8084 16.7495C64.4253 15.8737 64.261 14.8337 64.3705 13.7937C64.48 12.6989 64.8084 11.7684 65.4105 10.9474C65.9579 10.1263 66.7242 9.52421 67.6 9.14105C68.4758 8.75789 69.461 8.59368 70.5558 8.70315C71.8147 8.81263 72.8547 9.25052 73.6758 9.90737C74.5516 10.6189 75.0989 11.4947 75.3179 12.6442L72.6905 12.4253Z" fill="white"/>
<path d="M81.12 22.6063L80.1895 17.7347L79.2042 17.4063L77.8358 21.5116L75.7558 20.8L79.3137 10.3452L83.2548 11.6589C84.0758 11.9326 84.7326 12.3158 85.1705 12.8084C85.6632 13.301 85.9369 13.7937 86.0463 14.3958C86.1558 14.9979 86.1011 15.5452 85.9369 16.1474C85.7179 16.8589 85.28 17.4063 84.6779 17.7895C84.0758 18.2274 83.3642 18.3916 82.4884 18.3368L83.5284 23.4274L81.12 22.6063ZM79.7516 15.8737L81.5032 16.4758C82.0505 16.6947 82.5432 16.6947 82.9263 16.4758C83.3095 16.3116 83.5832 15.9831 83.7474 15.4905C83.9116 14.9979 83.9116 14.6147 83.6926 14.2316C83.5284 13.8484 83.1453 13.5747 82.5432 13.4105L80.7916 12.8084L79.7516 15.8737Z" fill="white"/>
<path d="M91.9032 15.4905L86.8126 25.2884L84.8421 24.2484L89.9326 14.4505L91.9032 15.4905Z" fill="white"/>
<path d="M89.9874 26.821C89.6589 26.2189 89.44 25.6716 89.44 25.0147C89.44 24.4126 89.659 23.8105 90.0421 23.2632L91.9579 24.6316C91.739 25.0147 91.6295 25.3979 91.739 25.781C91.7937 26.1642 92.0674 26.4926 92.4505 26.821C92.8884 27.1495 93.2716 27.2589 93.6547 27.2589C94.0379 27.2042 94.3663 27.04 94.5853 26.7116C94.8042 26.4379 94.859 26.1642 94.8042 25.8905C94.7495 25.6168 94.64 25.3432 94.4758 25.0695C94.3116 24.7958 94.0379 24.4674 93.7095 24.0295C93.2716 23.4274 92.8884 22.9347 92.6695 22.4968C92.4505 22.0589 92.2863 21.5663 92.2863 21.0737C92.2863 20.5263 92.4505 19.9789 92.8884 19.4316C93.2716 18.8842 93.7642 18.5558 94.3116 18.3368C94.859 18.1179 95.4611 18.1179 96.0632 18.2274C96.72 18.3368 97.3221 18.6653 97.9242 19.1032C98.8547 19.76 99.4569 20.5263 99.6758 21.4021C99.8947 22.2779 99.7853 23.1537 99.2926 23.9747L97.3221 22.5516C97.5411 22.2232 97.5958 21.8947 97.4863 21.5116C97.3769 21.1284 97.1579 20.8 96.72 20.5263C96.3916 20.2526 96.0084 20.1432 95.68 20.1979C95.3516 20.2526 95.0232 20.4168 94.8042 20.7453C94.64 20.9642 94.5853 21.2379 94.5853 21.5116C94.64 21.7853 94.7495 22.0589 94.9137 22.3326C95.0779 22.6063 95.3516 22.9347 95.68 23.3726C96.1179 23.9747 96.5011 24.4674 96.72 24.9053C96.939 25.3432 97.1032 25.8358 97.1032 26.3832C97.1032 26.9305 96.939 27.4779 96.5011 28.0253C96.1726 28.5179 95.7347 28.8463 95.1874 29.0653C94.64 29.2842 94.0379 29.3389 93.3811 29.2842C92.7242 29.1747 92.0674 28.901 91.4105 28.4084C90.8632 27.9158 90.3705 27.4232 89.9874 26.821Z" fill="white"/>
<path d="M97.7052 32.6779C97.4863 31.6926 97.541 30.7621 97.8694 29.7768C98.1979 28.8463 98.7452 28.0253 99.5663 27.3137C100.387 26.6021 101.263 26.1642 102.248 26C103.234 25.8358 104.164 25.8905 105.149 26.219C106.08 26.5474 106.901 27.0947 107.558 27.9158C108.269 28.6821 108.707 29.6126 108.872 30.5432C109.09 31.5284 108.981 32.459 108.707 33.3895C108.379 34.32 107.832 35.1411 107.01 35.8526C106.189 36.5642 105.314 37.0021 104.328 37.2211C103.343 37.3853 102.413 37.3305 101.482 37.0021C100.552 36.6737 99.7305 36.1263 99.0736 35.3053C98.3621 34.539 97.9242 33.6632 97.7052 32.6779ZM102.029 35.0863C102.577 35.2505 103.179 35.3053 103.781 35.1411C104.383 34.9768 104.985 34.6484 105.533 34.2105C106.08 33.7179 106.463 33.1705 106.737 32.6232C107.01 32.0758 107.01 31.4737 106.901 30.8716C106.792 30.2695 106.518 29.7768 106.08 29.2295C105.642 28.7368 105.149 28.3537 104.602 28.1895C104.055 27.9705 103.453 27.9705 102.85 28.1347C102.248 28.299 101.646 28.5726 101.099 29.0653C100.552 29.5579 100.168 30.1053 99.8947 30.6526C99.6757 31.2547 99.621 31.8021 99.6758 32.4042C99.7852 33.0063 100.059 33.5537 100.497 34.0463C100.989 34.539 101.482 34.8674 102.029 35.0863Z" fill="white"/>
<path d="M105.806 41.7095L107.558 44.8842L106.025 45.76L103.179 40.6147L112.813 35.2505L113.907 37.1663L105.806 41.7095Z" fill="white"/>
<path d="M114.345 56.3242C113.962 56.8169 113.415 57.2 112.813 57.3642C112.265 57.5284 111.718 57.4737 111.171 57.3095C110.678 57.1453 110.24 56.8169 109.857 56.3242C109.474 55.8316 109.2 55.2295 108.981 54.5179L107.777 49.92L118.505 47.1832L119.655 51.6169C119.819 52.3284 119.874 52.9853 119.764 53.5874C119.655 54.1895 119.436 54.6821 119.107 55.0105C118.779 55.3937 118.341 55.6674 117.794 55.7769C117.192 55.9411 116.589 55.8863 116.097 55.6674C115.604 55.4484 115.166 55.0653 114.893 54.5726C114.893 55.2295 114.728 55.7769 114.345 56.3242ZM111.335 54.9011C111.663 55.12 112.046 55.1747 112.484 55.0653C112.922 54.9558 113.251 54.6821 113.469 54.3537C113.634 53.9705 113.688 53.5326 113.524 52.9853L112.977 50.8505L110.076 51.5621L110.623 53.7516C110.787 54.299 111.061 54.6821 111.335 54.9011ZM114.674 50.4674L115.166 52.4379C115.276 52.9305 115.495 53.3137 115.823 53.5326C116.097 53.7516 116.48 53.8063 116.918 53.6969C117.356 53.5874 117.629 53.3684 117.794 53.04C117.958 52.7116 117.958 52.2737 117.848 51.7811L117.356 49.8105L114.674 50.4674Z" fill="white"/>
<path d="M110.24 64.9726L114.455 62.4L114.4 61.3053L110.076 61.4695L110.021 59.28L121.078 58.8969L121.242 63.0568C121.297 63.9326 121.133 64.6442 120.859 65.2463C120.585 65.8484 120.202 66.3411 119.709 66.6695C119.217 66.9979 118.615 67.1621 118.013 67.1621C117.301 67.1621 116.644 66.9979 116.042 66.6147C115.44 66.2316 115.002 65.5747 114.783 64.7537L110.404 67.5453L110.24 64.9726ZM116.097 61.2505L116.152 63.1116C116.152 63.7137 116.316 64.1516 116.644 64.4253C116.918 64.699 117.356 64.8632 117.848 64.8084C118.341 64.8084 118.724 64.6442 118.998 64.3158C119.272 63.9874 119.381 63.5495 119.381 62.9474L119.326 61.0863L116.097 61.2505Z" fill="white"/>
<path d="M112.758 83.2548C112.265 83.0905 111.992 82.5432 112.156 82.0505L113.688 77.4526C113.853 76.96 114.4 76.6863 114.893 76.8505C115.385 77.0147 115.659 77.5621 115.495 78.0548L113.962 82.6526C113.798 83.1453 113.251 83.419 112.758 83.2548Z" fill="white"/>
<path d="M106.354 103.617L97.4863 96.9937L98.8 95.2421L104.547 99.5663L100.552 92.8884L101.537 91.52L109.091 93.4358L103.343 89.1116L104.657 87.36L113.524 93.9831L111.992 96.0084L103.288 93.8737L107.777 101.646L106.354 103.617Z" fill="white"/>
<path d="M101.756 107.613L94.3663 99.4021L96.0084 97.9242L103.398 106.135L101.756 107.613Z" fill="white"/>
<path d="M85.1705 105.752L87.0316 104.547L95.3516 108.269L91.3011 101.865L93.1621 100.661L99.0737 110.021L97.2126 111.225L88.8926 107.503L92.9432 113.907L91.0821 115.112L85.1705 105.752Z" fill="white"/>
<path d="M84.7873 115.768L83.8021 113.196L80.2989 114.509L79.6968 112.867L83.2 111.554L82.16 108.817L78.2189 110.295L77.5621 108.598L83.5831 106.354L87.4694 116.754L81.4484 118.998L80.7916 117.301L84.7873 115.768Z" fill="white"/>
<path d="M70.5558 109.966L73.6758 113.798L74.7158 113.634L74.0042 109.364L76.1937 108.981L78 119.874L73.8947 120.531C73.0737 120.695 72.3074 120.64 71.6505 120.421C70.9937 120.202 70.5011 119.874 70.1179 119.436C69.7347 118.998 69.5158 118.451 69.4063 117.794C69.2969 117.082 69.4063 116.371 69.7347 115.768C70.0632 115.112 70.6105 114.619 71.3768 114.291L68.0379 110.295L70.5558 109.966ZM74.9347 115.276L73.1284 115.549C72.5263 115.659 72.0884 115.878 71.8695 116.206C71.6505 116.535 71.5411 116.973 71.6505 117.465C71.76 117.958 71.9242 118.341 72.2526 118.56C72.5811 118.779 73.0737 118.834 73.6758 118.779L75.4821 118.505L74.9347 115.276Z" fill="white"/>
<path d="M59.8274 112.156L64.2063 112.429L65.0821 110.349L67.3811 110.514L62.7284 121.297L60.1558 121.133L56.8716 109.857L59.2253 110.021L59.8274 112.156ZM60.32 113.962L61.6337 118.669L63.4947 114.126L60.32 113.962Z" fill="white"/>
<path d="M46.3621 117.52C45.6505 116.808 45.2126 115.987 44.9937 115.057C44.7747 114.126 44.8295 113.086 45.1579 112.046C45.4863 111.006 45.9789 110.131 46.6905 109.474C47.4021 108.817 48.2231 108.434 49.2084 108.215C50.1937 108.051 51.2337 108.105 52.3284 108.488L56.0505 109.638L52.821 120.202L49.0989 119.053C47.9495 118.724 47.0737 118.232 46.3621 117.52ZM48.9895 110.459C48.2231 110.897 47.621 111.663 47.2926 112.758C46.9642 113.853 47.0189 114.838 47.4021 115.604C47.84 116.425 48.6063 116.973 49.701 117.301L51.1789 117.739L53.3137 110.733L51.8358 110.295C50.741 109.966 49.8105 110.021 48.9895 110.459Z" fill="white"/>
<path d="M43.5158 105.697C44.0084 106.573 44.2274 107.503 44.2274 108.488C44.2274 109.474 43.9537 110.459 43.3516 111.389C42.8042 112.32 42.0926 113.032 41.2168 113.469C40.3411 113.962 39.4105 114.181 38.4253 114.126C37.44 114.072 36.5095 113.798 35.6337 113.251C34.7579 112.703 34.0463 111.992 33.5537 111.171C33.061 110.295 32.8421 109.364 32.8421 108.379C32.8421 107.394 33.1705 106.408 33.7179 105.478C34.2653 104.547 34.9768 103.836 35.8526 103.343C36.7284 102.851 37.6589 102.632 38.6442 102.686C39.6295 102.741 40.56 103.015 41.4358 103.562C42.3663 104.164 43.0232 104.821 43.5158 105.697ZM38.6989 104.766C38.0968 104.766 37.5495 104.931 37.0021 105.259C36.4547 105.587 36.0168 106.08 35.6337 106.682C35.2505 107.339 35.0316 107.941 34.9768 108.543C34.9221 109.145 35.0316 109.747 35.36 110.24C35.6337 110.733 36.0716 111.171 36.6189 111.554C37.1663 111.882 37.7684 112.101 38.3705 112.101C38.9726 112.101 39.52 111.937 40.0674 111.608C40.6147 111.28 41.0526 110.787 41.4358 110.185C41.8189 109.528 42.0379 108.926 42.0926 108.269C42.1474 107.667 42.0379 107.065 41.7642 106.573C41.4905 106.025 41.0526 105.642 40.5053 105.259C39.8484 104.931 39.301 104.766 38.6989 104.766Z" fill="white"/>
<path d="M31.8021 95.9537L30.4884 100.716L31.2547 101.427L34.2652 98.3621L35.8526 99.9495L28.08 107.832L25.1242 104.931C24.5221 104.328 24.0842 103.726 23.8652 103.069C23.6463 102.413 23.5915 101.811 23.7558 101.263C23.92 100.661 24.1937 100.168 24.6315 99.7305C25.1242 99.2379 25.781 98.9095 26.4926 98.8C27.2042 98.6905 27.9158 98.8547 28.6821 99.2379L29.941 94.2021L31.8021 95.9537ZM30.0505 102.632L28.7368 101.318C28.2989 100.88 27.861 100.661 27.4779 100.661C27.04 100.661 26.6568 100.825 26.3284 101.208C25.9452 101.592 25.781 101.975 25.8358 102.358C25.8358 102.741 26.0547 103.179 26.4926 103.617L27.8063 104.931L30.0505 102.632Z" fill="white"/>
<path d="M23.7011 88.5642L26.0548 92.2863L28.2442 91.7937L29.5032 93.7642L18.0084 96.3368L16.64 94.1474L23.8653 84.8421L25.1242 86.8126L23.7011 88.5642ZM22.5516 90.0421L19.4863 93.8737L24.2484 92.7242L22.5516 90.0421Z" fill="white"/>
<path d="M14.9431 74.9347C15.4358 74.7705 15.9831 75.099 16.0926 75.5916L17.4063 80.2442C17.5705 80.7369 17.2421 81.2842 16.7494 81.3937C16.2568 81.5579 15.7094 81.2295 15.6 80.7369L14.2863 76.0842C14.1768 75.5916 14.4505 75.099 14.9431 74.9347Z" fill="white"/>
<path d="M65.0274 130C29.1747 130 0 100.825 0 65.0274C0 29.2295 29.1747 0 65.0274 0C100.88 0 130 29.1747 130 65.0274C130 100.88 100.825 130 65.0274 130ZM65.0274 1.86105C30.2147 1.86105 1.86105 30.2147 1.86105 65.0274C1.86105 99.84 30.16 128.139 64.9726 128.139C99.7853 128.139 128.084 99.84 128.084 65.0274C128.084 30.2147 99.7853 1.86105 65.0274 1.86105Z" fill="white"/>
<path d="M65.0274 102.467C44.3369 102.467 27.5327 85.6631 27.5327 64.9726C27.5327 44.2821 44.3369 27.5326 65.0274 27.5326C85.7179 27.5326 102.522 44.3368 102.522 65.0274C102.522 85.7179 85.6632 102.467 65.0274 102.467ZM65.0274 28.5179C44.8842 28.5179 28.5179 44.8842 28.5179 65.0274C28.5179 85.1705 44.8842 101.537 65.0274 101.537C85.1705 101.537 101.537 85.1705 101.537 65.0274C101.537 44.8842 85.1158 28.5179 65.0274 28.5179Z" fill="white"/>
</g>
<defs>
<clipPath id="clip0_134_862">
<rect width="130" height="130" fill="white"/>
</clipPath>
</defs>
</svg>
